<?xml version="1.0" encoding="utf-8"?>
<!-- Generator: Adobe Illustrator 18.1.1, SVG Export Plug-In . SVG Version: 6.00 Build 0)  -->
<svg version="1.1" id="橫式LOGO" xmlns="http://www.w3.org/2000/svg" xmlns:xlink="http://www.w3.org/1999/xlink" x="0px" y="0px"
	 viewBox="0 0 349 43.8" enable-background="new 0 0 349 43.8" xml:space="preserve">
<g>
	<path fill="#040000" d="M47.2,21.1c0-5.7-4.6-10.4-10.2-10.4c-0.1,0-0.1,0-0.2,0c-1.2-4-5.1-7-9.7-7c-4.6,0-8.6,3-9.7,7.1
		C12,11,7.6,15.6,7.6,21.2c0,3.5,1.7,6.7,4.4,8.5c-0.3,0.9-0.4,1.9-0.4,2.9c0,5.6,4.5,10.1,10.1,10.1c2.3,0,4.4-0.8,6.1-2.1
		c1.7,1.2,3.7,1.9,6,1.9c5.5,0,10-4.4,10-9.8c0-1.2-0.2-2.3-0.6-3.3C45.6,27.6,47.2,24.5,47.2,21.1z M40.4,26.2c0,1.5-0.5,2.9-1.2,4
		c0.3,0.7,0.5,1.5,0.5,2.4c0,3.2-2.7,5.8-6.1,5.8c-1.4,0-2.8-0.5-3.8-1.3c-0.6,0.2-1.2,0.3-1.9,0.3c-0.9,0-1.7-0.1-2.5-0.3
		c-1.1,0.9-2.5,1.5-4,1.5c-3.3,0-6.1-2.6-6.1-5.8c0-0.8,0.2-1.6,0.5-2.3c-0.3-0.5-0.6-1.1-0.9-1.7c-0.3-0.7-0.4-1.5-0.5-2.3
		c-1.8-1.1-3-3.1-3-5.4c0-3.4,2.7-6.2,6-6.2c0.1,0,0.1,0,0.2,0c0.4-0.5,0.9-1,1.4-1.4c0.6-0.5,1.3-0.8,2-1.1
		c0.5-2.7,2.9-4.8,5.9-4.8c2.9,0,5.3,1.9,5.9,4.5c0.7,0.2,1.3,0.6,1.9,1c0.7,0.5,1.3,1,1.8,1.6c0.2,0,0.4,0,0.6,0c3.3,0,6,2.7,6,6.1
		C43.2,23.2,42.1,25.1,40.4,26.2z"/>
	<path fill="#040000" d="M21.4,20.3c1.3-1.9,3.5-3.2,5.8-3.3v-4.2C21.1,12.9,16,18.4,16,24.5c0,0,18.4,0,18.4,0
		c-0.1,3.8-3.2,6.9-7.1,6.9c-3.3,0-6-2.2-6.9-5.1l-4.3,0c0.9,5.2,5.5,9.2,11.1,9.2c6.2,0,11.2-5,11.2-11.2c0-1.4-0.3-2.8-0.8-4.1
		H21.4z"/>
</g>
<g>
	<g>
		<path fill="#040000" d="M304.1,9.9l3.9,0.9c0,0,1.1,0.5,2.1,0.9c0.9,0.5,2.3-0.5,2.3-0.5V9.5l-1.2-0.9c0,0-1.1,0-1.8,0
			c-0.7,0-1.6,0-2.5,0c-0.9,0-2.1-0.2-2.1-0.2S302.9,9.5,304.1,9.9z"/>
		<path fill="#040000" d="M299.9,19.4c0,0,3.9-1.4,6-1.8c2.1-0.5,3.7-1.1,3.7-1.1s1.6,0.5,1.6,1.1c0,0.7-0.9,0.7-1.6,1.6
			c-0.7,0.9-0.7,3.4-0.7,3.4l3,1.4l0.7,0.7c0,0-0.2,2.1-1.1,1.8c-0.9-0.2-3.4-0.9-3.4-0.9s0,7.8,0.2,9.2c0.2,1.4,0.5,2.3,0.5,2.3
			l-1.1,0.7l-1.4-1.4c0,0-0.2-4.1,0-6c0.2-1.8-0.5-4.6-0.5-4.6s-1.1,1.8-1.8,2.8c-0.7,0.9-2.5,3.4-2.5,3.4s-1.4-0.5-1.2-1.1
			c0.2-0.7,1.2-2.5,2.3-4.6c1.2-2.1,3.4-5.1,3.7-5.7c0.2-0.7-0.5-0.7-1.2-0.5c-0.7,0.2-2.1,1.6-2.1,1.6s0,1.1-0.9,1.1
			c-0.9,0-2.1-0.7-2.1-0.7S299,20.5,299.9,19.4z"/>
		<path fill="#040000" d="M320.4,10.2c0,0,3.2,0.9,3,2.3c-0.2,1.4-0.9,6.4-0.9,6.4s0.7,0.2,1.8,0c1.1-0.2,2.8-0.7,2.8-0.7
			s1.4,0.2,0.9,1.1c-0.5,0.9-1.6,1.6-1.6,1.6s-1.6,0.7-2.3,0.7c-0.7,0-1.6,0.5-1.6,0.5v7.4c0,0,4.4,0,5.1,0c0.7,0,1.8-0.7,1.8-0.7
			s1.6,0,2.3,0.2c0.7,0.2,1.6,1.4,1.4,2.1c-0.2,0.7,0.5,1.1-0.9,1.1c-1.4,0-3.4-0.5-6.2-0.5s-5.3-0.2-6.7,0
			c-1.4,0.2-2.5,1.1-3.7,1.4c-1.1,0.2-2.3,1.4-3,1.4c-0.7,0-1.8-0.9-1.8-0.9s0.2-2.5,1.1-3c0.9-0.5,2.3-0.5,3.4-0.5
			c1.1,0,4.1-0.2,4.1-0.2v-7.1c0,0-1.8,1.1-3,0.9c-1.1-0.2-2.5-0.9-2.5-0.9s-1.1-2.3,0.2-2.5c1.4-0.2,3.2-0.2,3.2-0.2l0.2,0.7
			l1.6-0.5c0,0,0.5-6,0.5-6.7C319.7,12.9,319.7,10.4,320.4,10.2z"/>
		<path fill="#040000" d="M333.3,12c0,0,1.4-0.7,2.1-0.2c0.7,0.5,1.6,0,2.5-0.2c0.9-0.2,2.5-0.2,2.5-0.2l0.9,1.8l-1.4,3.4l-4.4,0.5
			l-0.5,3.4l-1.8,2.1l3,0.2l0.7-2.3l1.1,0.2l0.5,1.6l2.5-0.2l0.2,0.9l-0.7,0.7l-2.3,0.2l-0.5,1.8l-1.4,1.1c0,0-0.7,0.5,0,0.9
			c0.7,0.5,3,0.2,3,0.2l0.7,0.7l-0.9,0.9c0,0-2.3,0.7-3.2,0.2c-0.9-0.5-2.1-0.9-2.1-1.6c0-0.7,0.9-2.5,0.9-2.5l1.6-0.9l-2.8-0.5
			l-1.1-1.1l-0.5-0.9c0,0,1.1-2.1,1.4-2.8c0.2-0.7,0.5-3.7,0.5-3.7l3.7-0.5l1.1-0.7l0.7-1.4h-1.4l-1.8,0.7l-1.6-0.2l-1.4-0.9V12z"/>
		<polygon fill="#040000" points="341.5,21.4 342.2,20 343.1,20 344.5,22.1 345.2,23.9 344.1,23.9 342.9,22.8 		"/>
	</g>
	<g>
		<g>
			<path fill="#040000" d="M255.7,7.5c0.2-0.1,1.2-0.1,1.5-0.2c0.3,0,1.1,0.5,1.4,0.7c0.3,0.3,0.6,0.7,0.7,1.1
				c0.1,0.4,0.2,0.5,0.1,0.9c-0.1,0.4-0.1,0.9-0.1,0.9s0.1,0,0.6,0c0.6,0,2.1-0.1,2.5-0.2c0.4-0.1,1-0.3,1.2-0.1
				c0.2,0.1,0.9,0.5,0.8,0.8c-0.1,0.2,0.3,0.2-0.2,0.5c-0.5,0.3-1,0.8-1.6,1c-0.6,0.1-1.7,0.5-2.1,0.5c-0.4,0-1.3,0.3-1.3,0.3
				s0.2,2.7,0,2.9c-0.1,0.2,0,0.3,0.4,0.2c0.4-0.1,2.8-0.8,3-1c0.3-0.1,0.7-0.5,1-0.5c0.3,0,0.9-0.1,1,0c0.1,0.1,0.2,0.8,0,1.1
				c-0.2,0.2-0.4,0.8-0.6,1.1c-0.3,0.3-0.4,0.6-0.4,0.6s-0.4,0-0.7,0c-0.3,0-0.4,0.1-0.7,0.1c-0.3,0.1-0.6,0-1.4,0.2
				c-0.7,0.2-1.2,0.3-1.7,0.4c-0.5,0.1-1.3,0.4-1.8,0.7c-0.5,0.2-0.7,0.4-1.2,0.6c-0.4,0.2-0.8,0.3-0.7,0.5c0,0.1,0.2,1.5,0.7,1.4
				c0.5-0.1,0.6-0.1,0.9-0.3c0.3-0.2,0.8-0.4,0.8-0.4s0.3,0,0.1,0.2c-0.2,0.2-0.2,0.2-0.4,0.5c-0.2,0.2-0.4,0.3-0.5,0.5
				c-0.1,0.2-0.3,0.8-0.3,1.1c-0.1,0.3,0,0.4-0.2,0.6c-0.2,0.2-0.4,0.4-0.7,0.4c-0.3,0-0.4,0.2-0.7,0c-0.3-0.3-0.5-0.3-0.5-0.6
				c0-0.3,0.1-0.4,0-0.8c-0.1-0.4-0.2-0.7-0.4-1c-0.2-0.3-0.1-0.6-0.5-0.7c-0.4-0.1-0.6-0.1-1.1,0c-0.5,0.1-1.4,0.2-2,0.6
				c-0.6,0.3-1.5,0.6-2,1c-0.5,0.3-1,0.8-1.3,1.1c-0.2,0.3-0.5,0.6-0.8,0.9c-0.3,0.3,0,0.3-0.4,0.4c-0.5,0-0.7,0.3-1-0.1
				c-0.3-0.3-0.9-1.2-0.9-1.6c0-0.4,0.1-1.5,0.4-1.8c0.3-0.3,1.3-0.7,2-0.9c0.7-0.2,2.6-0.5,3.3-0.7c0.6-0.2,3.1-0.8,3.5-1
				c0.4-0.2,3.2-1.3,3.2-1.5c0.1-0.2,0.2-0.4-0.1-0.9c-0.3-0.5-0.2-0.8-0.6-1c-0.4-0.2-0.5-0.2-0.8-0.2c-0.3,0-0.1,0-0.7,0.3
				c-0.5,0.3-0.7,0.2-1.1,0.4c-0.4,0.1-0.8,0.2-1.4,0c-0.6-0.2-1-0.5-1.1-0.7c-0.1-0.2-0.5-0.1-0.8-0.3c-0.2-0.1-0.5-0.1-0.5-0.5
				c0-0.4,0.1-1.2,0.4-1.4c0.2-0.2,0.4-0.5,0.8-0.6c0.4-0.1,1.7-0.3,2.2-0.2c0.4,0.1,0.3,0.1,0.8,0.2c0.5,0.1,2.1,0.1,2.5-0.1
				c0.3-0.1,0.3-0.1,0.4-0.4c0.1-0.3-0.1-0.6-0.5-1.1c-0.4-0.5-0.7-1-1-1.6c-0.3-0.6-0.2-0.6,0-1.1c0.1-0.4,0.3-0.7,0.5-0.9
				C255.5,7.6,255.7,7.5,255.7,7.5z"/>
			<path fill="#040000" d="M259,20c0,0,1.1,0.1,1.4,0c0.3-0.1,0.8-0.4,1-0.5c0.2,0,1-0.2,1.2-0.1c0.1,0.1,0.2,0.3,0.1,0.5
				c-0.1,0.2-0.4,0.9-1.1,1.5c-0.7,0.6-1,0.9-1.4,1.1c-0.3,0.2-0.7,0.5-1.1,0.7c-0.3,0.2-0.3,0.4-0.6,0.3c-0.3-0.1-0.5-0.2-0.3-0.6
				c0.1-0.3,0.4-0.7,0.5-1.1c0.1-0.4,0.2-0.6,0.3-1.1C259,20.3,259,20,259,20z"/>
			<path fill="#040000" d="M250,27c0,0,1.3-0.4,1.8-0.6c0.4-0.1,1.8-0.2,2.2-0.3c0.4,0,1.5-0.4,2-0.6c0.5-0.1,0.9-0.2,1-0.4
				c0.1-0.2,0.1-0.3,0.1-0.3s0.6,0,0.8,0c0.2,0,0.4-0.2,0.8-0.4c0.4-0.2,0.2-0.3,0.5-0.5c0.3-0.1,0.5-0.3,0.7-0.3
				c0.2,0,1-0.3,1.3-0.3c0.3,0,0.9-0.2,1.1,0c0.2,0.3,0.7,0.6,0.7,0.9c-0.1,0.3-0.5,0.7-0.9,0.8c-0.4,0-0.7,0.3-1.1,0.4
				c-0.4,0.1-1,0.3-1,0.3s0,0.5,0.1,0.9c0.1,0.4,0.1,0.3,0,0.6c-0.1,0.3-0.2,0.2-0.2,0.5c0,0.3-0.1,0.4,0.2,0.4
				c0.3,0,1.3-0.4,1.5-0.6c0.2-0.2,1.1-0.9,1.4-1c0.3-0.1,0.8-0.2,1,0.1c0.2,0.3,0.2,0.3,0,0.7c-0.2,0.4-0.2,0.7-0.5,1
				c-0.2,0.3-0.3,0.5-0.4,0.6c-0.1,0.1-0.8,0.2-1.5,0.6c-0.6,0.3-1.4,0.4-1.7,0.8c-0.3,0.4-0.5,2-0.5,3c-0.1,1,0,1.3-0.3,2.1
				c-0.3,0.8-0.3,0.9-0.7,1.5c-0.4,0.6-0.7,0.9-1,1.2c-0.3,0.3-0.6,0.5-0.8,0.5c-0.2,0,0.1-1.2,0.3-2c0.2-0.8,0.3-2.1,0.3-3.1
				c0-0.9-0.2-1.9-0.2-1.9s-0.3-0.1-0.9,0c-0.5,0.1-0.9,0.4-1.4,0.7c-0.5,0.2-0.7,0.2-1.3,0.6c-0.6,0.3-0.7,0.6-1,0.7
				c-0.2,0.1-0.2,0.2-0.5,0.3c-0.3,0.1-1,0.2-1.3,0.1c-0.3-0.1-0.3-0.3-0.7-0.3c-0.3,0-0.8,0.1-0.7-0.2c0.1-0.3,0-0.3,0.2-0.8
				c0.2-0.4,1-1.1,1.4-1.3c0.4-0.1,1.3-0.3,1.8-0.6c0.4-0.2,1.3-0.3,1.5-0.4c0.2-0.1,1.7-1,2-1.1c0.3-0.1,0.6,0.1,0.9,0.1
				c0.3,0,0.9-0.2,0.9-0.3c0.1-0.1,0.1-0.6-0.1-0.9c-0.1-0.2-0.7-0.6-0.7-0.7c0-0.1,0-0.4-0.2-0.3c-0.2,0.1-0.6,0.1-0.9,0.3
				c-0.3,0.1-0.5,0.2-0.8,0.3c-0.2,0.1-0.6,0.6-0.8,0.7c-0.2,0-0.6,0-0.8,0.1c-0.2,0.1-0.9,0.6-1.2,0.7c-0.3,0.1-0.6,0.2-0.9,0.1
				c-0.3-0.1-1.2-0.3-1.4-0.5c-0.2-0.2-0.5-1-0.3-1.4C249.9,27.2,250,27,250,27z"/>
			<path fill="#040000" d="M292.4,31.7c0-0.3-0.5-0.3-0.8-0.3c-0.3-0.1-1.2-0.5-1.8-0.5c-0.5,0-0.4,0.2-1.3,0.3
				c-0.9,0.1-3.4,0.1-4.1,0.1c-0.7,0-1.8-0.2-2.4-0.4c-0.6-0.2-1.7-0.9-2.1-1.1c-0.3-0.2-0.7-0.2-0.8-0.5c-0.1-0.3-0.4-0.2-0.7-0.3
				c-0.3-0.1-0.6-0.5-0.9-0.8c-0.2-0.3-0.6-0.3-0.9-0.7c-0.3-0.4-1.3-1.2-1.6-1.5c-0.3-0.3-0.1-0.3-0.1-0.6c0-0.2,0.2-0.5,0.4-0.8
				c0.2-0.2,0.1-0.9,0.4-1.4c0.3-0.4,0.3-1.2,0.5-1.5c0.1-0.2,0.4-0.8,0.6-1.2c0.2-0.3,0.4-0.8,0.4-1.2c0.1-0.4-0.4-1.3-0.7-1.5
				c-0.2-0.2-0.6-0.1-1-0.2c-0.4,0-1,0.3-1.3,0.6c-0.3,0.3-1.1,1-1.1,1.2c0,0.2-1,0.3-1.3,0.4c-0.3,0.1-1.2,0.3-1.4,0.3
				c-0.2,0-0.4-0.1-0.6-0.4c-0.2-0.3,0-2.2,0-2.2s0.3,0,0.7,0c0.4,0,0.6,0.1,0.9,0.1c0.3,0,0.5,0,0.8-0.1c0.3-0.1,0.3-0.2,0.4-0.6
				c0.1-0.3,0.2-0.3,0.5-0.5c0.3-0.2,0.6-0.4,0.8-0.8c0.2-0.4,0.2-0.8,0.2-1.1c0.1-0.3,0-0.7,0.1-1.2c0.1-0.5,0.2-0.9,0.3-1.4
				c0.1-0.5,0.3-0.9,0.5-1.2c0.2-0.3,0.1-0.9,0.1-1.2c-0.1-0.2-0.3-0.8-0.5-1.1c-0.2-0.3-0.7-0.4-1.1-0.4c-0.4,0-1.5,0-1.8,0.2
				c-0.3,0.2-0.8,0.7-1.1,1c-0.3,0.3-1.7,1.2-2,1.4c-0.3,0.2-0.6,0.2-1.2,0.3c-0.6,0-1.5,0.7-1.5,0.7c-0.1,0.1,0,0.6,0,1
				c0.1,0.4,0.1,0.4,0.4,0.7c0.3,0.3,0.5,0.4,0.6,0.7c0.2,0.3,0,0.5,0.1,1.7c0.1,1.2,0,0.9,0.1,1.1c0.1,0.2,0.2,0.1,0.3,0.8
				c0.1,0.6,0,0.6,0,1.2c-0.1,0.5,0,0.9,0,1.2c0,0.3,0.1,0.1,0.1,1.1c0,1,0.1,0.9,0.1,1.4c0.1,0.5,0,0.8,0,1.4
				c0,0.6-0.1,1.2-0.1,1.8c0,0.6,0.1,0.5,0.2,1.5c0,0.9,0,1.2-0.1,1.6c-0.2,0.4-0.3,0.5-0.3,0.8c-0.1,0.3,0,0.8-0.2,1.3
				c-0.2,0.5-0.3,0.6-0.1,1c0.2,0.4,0.3,0.8,0.6,1.3c0.3,0.5,0.2,0.8,0.4,1.3c0.2,0.5,0.3,0.1,0.6-0.2c0.2-0.3,0.3-0.6,0.3-1.1
				c0-0.4,0.2-1.2,0.2-1.2s0.6-0.6,0.7-0.8c0.1-0.2,0.5-0.1,0.9-0.2c0.3-0.1,0.7-0.3,0.9-0.5c0.2-0.2,0.5-0.5,0.8-0.9
				c0.3-0.4,0.2-0.5,0.3-1.1c0.2-0.6,0.2-0.5,0.7-0.6c0.6-0.1,0.4,0.2,0.6,0.3c0.3,0.1,0.4,0.1,0.7,0.4c0.3,0.3,0.1,0.6,0.3,0.6
				c0.2,0.1,0-0.1,0.5,0.4c0.7,0.8,1.3,2,1.3,2s0.2,0,0.7,0.1c0.4,0.2,1.5,1.2,2.2,1.5c0.7,0.3,1.5,0.9,1.9,1.3
				c0.4,0.4,1,0.4,1.4,0.6c0.4,0.1,1,0,1.2-0.2c0.2-0.1,0.5,0,1.3-0.3c0.8-0.2,1.1-0.4,1.8-0.8c0.7-0.3,2-0.8,2.8-1
				c0.8-0.2,1.4-0.4,1.8-0.6C292.6,32.4,292.4,31.9,292.4,31.7z M269.2,13.3c-0.1-0.2-0.2-0.5-0.2-0.5c0.1-0.1,0.9,0,1.2-0.1
				c0.3-0.1,0.2-0.2,0.5-0.5c0.3-0.2,0.4-0.5,0.6-0.4c0.2,0.1,0.4,0.2,0.3,0.5c0,0.3-0.2,0.2-0.2,0.7c-0.1,0.4,0.1,0.1-0.1,0.7
				c-0.1,0.6-0.3,0.7-0.4,1c-0.1,0.3,0,0.3-0.2,0.5c-0.2,0.2-0.2,0.2-0.6,0.4c-0.4,0.1-0.4,0.4-0.6,0c-0.1-0.3-0.1-0.3-0.1-0.8
				c0-0.5-0.1-0.6-0.1-0.9C269.3,13.6,269.3,13.6,269.2,13.3z M271.6,26.9c-0.2,0.4,0,0.6-0.4,0.9c-0.3,0.2-0.2,0.2-0.5,0.4
				c-0.3,0.2-0.4,0.2-0.4,0.4c-0.1,0.2-0.2,0.4-0.2,0.4h-0.7c0,0-0.1-0.1,0.1-0.6c0.1-0.5,0.1-1.5,0.1-1.8c0.1-0.3,0.2-2,0.1-2.3
				c-0.1-0.3,0-0.6,0-0.6s0.2-0.2,0.3,0c0.1,0.3,0.1,0.3,0.3,0.6c0.2,0.3,0.3,0.5,0.7,0.7c0.3,0.3,0.4,0.1,0.5,0.4
				C271.5,25.9,271.8,26.4,271.6,26.9z M274.1,22c-0.2,0.3-0.2,0.4-0.3,0.5c-0.2,0-0.4,0-0.4,0s0,0.1-0.1,0.4
				c-0.1,0.2-0.2,0.4-0.4,0.6c-0.2,0.2,0.1,0.5-0.3,0c-0.4-0.5-0.5-0.6-0.8-0.6c-0.3,0-0.1,0.1-0.3-0.2c-0.3-0.4-0.5-0.2-0.5-0.4
				c0-0.2,0-0.5,0-0.5s0.3,0.1,0.4-0.1c0.2-0.1,0.2-0.3,0.6-0.5c0.4-0.2,0.3-0.3,0.7-0.3c0.4,0,1-0.1,1.1,0c0.1,0.1,0.4,0.2,0.4,0.4
				C274.2,21.5,274.3,21.6,274.1,22z"/>
		</g>
		<g>
			<path fill="#040000" d="M284.1,8.5c0,0,0.5-0.5,0.8-0.6c0.3-0.1,0.2-0.3,0.7-0.2c0.4,0.1,0.7,0.2,0.8,0.5
				c0.1,0.3,0.3,0.4,0.3,0.8c0,0.3,0.1,1.3,0,1.6c-0.1,0.3-0.1,0.5-0.1,0.9c-0.1,0.4,0,1,0,1s0.2,0.1,0.4,0.1c0.2,0,0.4-0.3,0.8-0.4
				c0.4-0.1,0.6,0,1-0.1c0.4-0.1,0.7-0.2,1-0.1c0.3,0.1,0.6,0.2,0.8,0.4c0.2,0.3,0.5,0.6,0.5,1.2c0,0.5-0.1,1.4-0.2,1.8
				c-0.1,0.3-0.3,1-0.6,1.3c-0.2,0.3-0.4,0.7-0.5,1.1c-0.2,0.4-0.1,0.8-0.4,1c-0.3,0.2-0.2,0.4-0.5,0.5c-0.3,0.1-0.5,0.1-0.8,0.1
				c-0.3,0-0.8,0.2-1.1,0.1c-0.3,0-0.2-0.2-0.4-0.2c-0.1-0.1-0.6,0-0.8-0.1c-0.2,0-0.6-0.3-0.7-0.5c-0.1-0.2-0.2-0.7,0.2-1
				c0.3-0.2,1-0.1,1.3-0.2c0.3-0.1,0.8-0.3,1-0.5c0.2-0.2,0.9-0.9,1-1.2c0.1-0.3,0.1-0.9,0.1-1.1c0-0.2,0-0.3-0.4-0.4
				c-0.3,0-0.5-0.3-0.7-0.2c-0.1,0.1-0.2,0.1-0.4,0.2c-0.2,0-0.7-0.1-1,0c-0.3,0.1-0.7,0.1-1,0.2c-0.3,0.1-0.5,0-1,0.1
				c-0.5,0.1-0.6,0.2-0.7,0.4c-0.1,0.1,0,0.1-0.5,0.1c-0.5,0-0.9-0.3-1.1-0.4c-0.2,0-1.1-0.7-1-1c0.1-0.2,0.3-0.9,0.5-1.2
				c0.3-0.3,0.9-1,1.2-1.3c0.3-0.3,0.4-0.7,0.7-1.1c0.3-0.3,0.6-0.6,0.6-0.9C284.1,9.1,284.1,8.5,284.1,8.5z"/>
			<path fill="#040000" d="M284.9,20.5c0,0,0.3,0,0.5,0c0.2,0.1,0.4,0.1,0.5,0.3c0.1,0.2,0.1,0.5,0,0.7c-0.1,0.2-0.1,0.3-0.2,0.5
				c-0.2,0.2-0.3,0.1-0.3,0.4c0,0.3-0.2,0.6,0,0.7c0.2,0.1,0.3,0.6,0.5,0.4c0.3-0.1,1-0.6,1.1-0.9c0.1-0.3,0.4-0.9,0.6-1.1
				c0.2-0.1,0.9-0.1,1.1-0.2c0.2-0.1,0.3-0.3,0.7-0.5c0.4-0.1,0.9-0.2,1.2-0.2c0.3,0,1.1,0.1,1.3,0.3c0.2,0.2,0.4,0.7,0.6,1.2
				c0.2,0.5,0.1,0.5,0.4,1c0.3,0.4,0.4,0.6,0.6,0.8c0.3,0.2,0.3,0.2,0.3,0.5c0,0.3,0.1,1-0.1,1.4c-0.2,0.4-0.1,0.4-0.4,0.5
				c-0.3,0.1-0.3,0.1-0.8-0.1c-0.4-0.2-0.7-0.5-0.7-0.7c0-0.2,0.1-0.5,0-0.7c-0.1-0.2-0.5-1.1-0.9-1.5c-0.4-0.3-0.4-0.6-0.8-0.6
				c-0.4,0-0.9-0.1-1.2,0c-0.3,0.1-0.5,0.2-0.6,0.5c-0.1,0.2-0.3,0.4-0.6,0.7c-0.3,0.3-0.4,0.4-0.6,0.7c-0.3,0.2-0.6,0.4-0.6,0.4
				s-0.2,1.1-0.1,1.3c0.1,0.1,0.8,0.3,1,0.2c0.3-0.1,0.4-0.4,0.7-0.7c0.2-0.3,0.2-0.5,0.5-0.5c0.3,0,0.6,0.1,0.7,0.3
				c0.1,0.2,0.4,1,0.5,1.3c0.2,0.2,0.3,0.4,0.3,0.7c0,0.3,0.1,0.7,0,0.8c-0.1,0.1,0.4,0-0.2,0.2c-0.6,0.3-0.9,0.1-1-0.1
				c0-0.2,0.2-0.2-0.2-0.3c-0.3-0.1-0.5,0-0.9-0.1c-0.4-0.1-0.7-0.2-1-0.1c-0.3,0.1-0.4,0-0.7,0.2c-0.3,0.1-0.4,0.2-0.7,0.3
				c-0.3,0-0.7,0-0.9,0.1c-0.2,0.1-0.2,0.1-0.4,0.1c-0.2,0-1.2,0-1.4-0.2c-0.2-0.2-0.3-0.8-0.2-1.2c0.2-0.3,0.6-0.7,0.9-1
				c0.3-0.2,0.7-0.5,0.7-0.5l0.1-0.3c0,0-1.3-0.7-1.4-0.9c-0.1-0.2-0.4-0.4-0.4-0.6c0-0.3-0.2-1.2-0.1-1.5c0.1-0.2,0.7-0.8,0.9-1
				c0.2-0.2,0.8-0.2,0.9-0.4c0.1-0.2,0.4-0.6,0.4-0.8C284.7,20.7,284.9,20.5,284.9,20.5z"/>
		</g>
	</g>
	<g>
		<g>
			<path fill="#040000" d="M107.3,13C107.2,13,107.3,13.1,107.3,13L107.3,13z"/>
			<path fill="#040000" d="M126.5,28.5c-0.2-0.7-0.2-1.5-0.1-1.9c0.1-0.4,0.1-1.3,0-2.3c-0.1-0.9-0.1-4.7,0-5.4c0.1-0.7,0-1.7,0-3
				c0-1.3-0.1-3.1,0.3-4.1c0.4-1,0.2-2.8,0.1-3.1c-0.1-0.3-0.4-1.2-0.8-1.6c-0.4-0.4-1-0.4-1.2-0.5c-0.3-0.1-0.6-0.6-0.9-0.8
				c-0.3-0.2-0.9-0.5-1.5-0.6c-0.6-0.1-1.2,0-1.7,0.1c-0.4,0.1-1.4,0.2-2.1,0.5c-0.7,0.4-1.5,0.8-2.3,1c-0.8,0.2-3.2,0.5-3.6,0.5
				c-0.4,0-0.6,0-1.2,0.3c-0.6,0.3-3,1-3.9,1.2c-0.9,0.2-0.5,0.4-1.1,0.4c-0.6-0.1-2.1,0.2-2.1,0.2c-0.1,0.4,0,1,0.2,1.5
				c0.2,0.6,0.8,0.8,2.1,1.6c0.5,0.3,0.6,0.4,0.7,0.4c0,0,0.1,0,0.2,0.1c0.6,0.2,0.7,0,0.9,0.1c0.3,0.1,0.4-0.3,0.9-0.4
				c0.4-0.1,0.6-0.5,1.2-0.7c0.6-0.1,0.8-0.3,1.1-0.3c0.3,0,0.7,0.3,0.7,0.3s0.1,0.2,0.1,0.6c0,0.4,0,1.5,0,2c0,0.5,0.1,0.9,0.2,1.2
				c0.1,0.3,0.4,0.7,0.4,0.7s-0.9,0.2-1.4,0.3c-0.4,0.1-1.5,0.4-2.2,0.5c-0.7,0.2-1,0.2-1.7,0.3c-0.7,0.2-1.4,0.2-1.4,0.2
				s0-0.7-0.1-0.9c-0.1-0.3-0.2-0.5-0.7-1.1c-0.4-0.6-0.8-1-1.3-1.7c-0.4-0.7-0.4-1.1-0.9-2c-0.4-0.9-0.7-1.1-1-1.4
				c-0.3-0.3-0.7-0.1-1.2-0.1c-0.4,0.1-0.3,0.3-0.5,0.8c-0.2,0.5-0.3,1.1-0.3,1.5c0,0.4-0.1,0.4-0.3,0.7c-0.1,0.4-0.3,0-0.3,0.7
				c0,0.7,0.3,4.4,0.3,5.1c0,0.7,0,3.4-0.1,3.8c-0.1,0.4-0.3,2.7,0,3.7c0.3,0.9,0.2,4,0.3,5c0.1,1,0.1,2.8,0.1,2.8s-0.4,0.4-0.4,0.7
				c-0.1,0.3-0.1,0.7,0,1.1c0.1,0.4,0.4,1.8,0.5,2c0.1,0.3,0.5,0.9,1,1.4c0.5,0.4,0.8,0.4,1,0.3c0.2-0.1-0.1-0.3,0-0.4
				c0.1-0.1,0.6-1.8,0.7-2.2c0.1-0.4,0.8,0.1,1.1,0.2c0.3,0.1,0.6,0.5,1,0.8c0.4,0.3,0.4,0.3,0.7,0.4c0.4,0.1,0.4,0.3,0.8,0.1
				c0.4-0.1,0.7-0.5,0.7-0.5s0.4-0.1,0.9-0.2c0.5-0.1,1.3-0.2,1.6-0.4c0.3-0.1,4-0.8,4.9-1c0.9-0.2,2.3-0.4,2.8-0.4
				c0.5,0,1,0.1,1.2,0.1c0.2,0,0.7-0.4,1-0.6c0.4-0.2,0.5-0.2,0.7-0.9c0.1-0.7-1.3-1.4-1.6-1.5c-0.3-0.1-0.8-0.1-1-0.1
				c-0.2,0-1.2,0.8-1.5,1c-0.3,0.1-0.6,0.2-0.9,0.2c-0.3,0.1-0.8,0.2-1.4,0.3c-0.6,0.1-1.7,0-2,0.2c-0.4,0.1-1.6,0.1-1.9,0.2
				c-0.3,0.1-0.8,0.2-1.1,0.4c-0.3,0.1-0.9,0.2-1.2,0.3c-0.4,0.1-1.1,0.2-1.1,0.2s-0.9,0-1.2,0.1c-0.4,0.1-1.2-0.1-1.5-0.1
				c-0.3-0.1-0.6-0.4-1-1.3c-0.4-0.9,2.4-15.4,2.7-15.6c0.2-0.1,0.3,0.1,0.6,0.4c0.3,0.2,1.2,0.1,1.8-0.2c0.5-0.3,1.7-0.9,2-1
				c0.4-0.1,1.1-0.1,1.1-0.1s0.4-0.1,0.7-0.2c0.4,0,0.1,0.3,0.1,0.6c-0.1,0.3-0.6,0.4-0.7,0.6c-0.1,0.2-0.7,1-0.7,1l-0.3,0.2
				c-0.3,0.3-1.6,1.4-1.6,1.4s0,0.4-0.2,0.5c-0.2,0.1-1.3,1.2-1.5,1.5c-0.1,0.2,0,0.7,0.3,1c0.3,0.3,0.4,0.1,1.2,0.1
				c0.7,0,0.9-0.1,0.9-0.1s0.2-0.2-0.1,0.7c-0.3,1-2.6,2.3-2.8,2.6c-0.1,0.3-0.8,1.2-0.9,1.6c-0.1,0.4-0.4,1.5-0.4,1.8
				c0.1,0.4,0.7,0.7,1.3,0.7c0.6,0.1,0.8,0.4,1.9,0.1c1.1-0.3,4.1-2.9,4.4-3.1c0.2-0.2,0.4,0,0.9-0.6c0.5-0.6,2-2.1,2.1-2.4
				c0.1-0.2,0.7-0.2,0.7-0.2l1,1.4l0,0.4c0,0-0.6,0.5-0.9,1c-0.3,0.4-1.2,1.7-1.2,1.7s-0.2,0.6,0,0.7c0.2,0.1,1.1-0.7,1.5-1
				c0.4-0.3,0.9-0.8,0.9-0.8l0.9,1.1l0.2,0.6c0,0,0.3,0.3,0.4,0.6c0.1,0.2,0.6,1.2,1,1.5c0.4,0.3,0.6,0,0.6,0s0,0,0.4-0.4
				c0.4-0.4,0.3-1.7,0.5-2.5c0.2-0.8-0.1-4.5-0.1-4.3c0,0.2-0.3,1.1-0.5,1.4c-0.1,0.4-0.3,0.7-0.4,0.9c-0.1,0.2-0.4,0-0.6-0.1
				c-0.2-0.1-0.1-0.5-0.3-0.7c-0.1-0.2-0.4-0.7-0.4-0.7s0.2-0.2,0.4-0.7c0.2-0.4,0.9-2,1.2-2.3c0.2-0.3,0.1-0.4,0.1-0.7
				c0-0.4,0.1-0.8,0.5-1.7c0.4-0.9,0.3-1,0.6-1.2c0.3-0.2,0.1-0.5-0.1-0.8c-0.1-0.3-1.4-1-1.7-1.1c-0.3-0.1-0.8,0.2-1.1,0.2
				c-0.3,0.1-0.1,0.5-0.1,1.3c-0.1,0.8-0.5,2.6-0.5,2.6s-0.5,0.7-0.6,0.7c-0.1,0-0.9-2.6-1.1-3c-0.2-0.4-0.4-0.9-0.5-1.2
				c-0.1-0.4-0.4-0.4-0.5-0.7c-0.1-0.3-0.1-1.3-0.1-1.3l0.6-0.1c0,0,0.4-0.3,0.7-0.4c0.4-0.1,0.7-0.5,0.7-0.5l0.1-0.4l1.1-0.2
				c0,0,0.7-0.1,0.9-0.1c0.2,0,0.7-0.2,0.9-0.4c0.2-0.1,0.4-0.8,0.4-1.2c0.1-0.4-0.2-0.4-0.2-0.8c0-0.4-0.1-0.8-0.1-1.3
				c0-0.5-0.2-1.2-0.3-1.5c-0.1-0.4-0.5-0.4-0.7-0.5c-0.2-0.1-0.4-0.3-0.4-0.3s0.1-0.2,0.4-0.4c0.3-0.1,0.7-0.7,1.2-0.7
				c0.6,0,1,0,1.3,0.4c0.4,0.4,0.7,1.5,0.7,1.5s-0.2,0.4-0.3,0.6c-0.1,0.2,0.2,1.8,0.2,2.3c0,0.5,0.3,0.7,0.4,0.9
				c0.1,0.2,0,3.6,0,4.8c0,1.2,0.2,16.2,0.2,16.2s-0.6,0.4-0.6,0.7c-0.1,0.3,0.1,0.4,0,0.5c-0.2,0.2-0.1,0.1-1.3,0.9
				c0,0-1.2,0.2-1.6,0.1c-0.4-0.1-1.9,0-1.9,0l-0.4,0.4c0,0,0.3,0.5,0.5,0.7c0.2,0.2,0.8,0.2,1.2,0.4c0.4,0.2,1.5,0.4,1.5,0.4
				l0.7,0.4c0,0,1,0.6,1.3,0.9c0.4,0.2,1.2,0.6,2,0.4c0.7-0.2,0.7-1.3,1.1-2.1c0.4-0.7,0-4.1,0-4.1s0-0.3,0.1-0.6
				c0.1-0.3,0-2.7,0-3.4C126.5,29.8,126.6,29.2,126.5,28.5z M116.8,25.5c-0.2,0-0.7-0.1-0.9,0.1c-0.2,0.1-2,1.7-2.3,1.8
				c-0.2,0.1-1.1,0.3-1.1,0.3s-0.4,0.2-0.7,0.3c-0.4,0.2-0.6,0.3-0.6,0.3s-0.2,0.2-0.5,0.2c-0.3,0.1-0.6,0.3-0.6,0
				c0-0.2,0.1-0.4,0.4-0.7c0.3-0.4,2.9-3.6,3.1-3.7c0.2-0.1,0.4-0.1,0.4-0.1s0.1-0.9,0-1.1c-0.1-0.2-0.1-0.6-0.3-0.7
				c-0.2-0.1-1.8-0.1-1.8-0.1s0.1-0.6,0.4-1c0.4-0.4,1.2-1,1.2-1l0.1-0.4l0.4-0.3l0.7,1.2c0,0,0.1,0.7,0.2,1.1
				c0.1,0.4,0.4,1.1,0.7,1.4c0.2,0.3,0.3,0.8,0.3,0.8S117,25.5,116.8,25.5z M118.8,13.8c-0.3,0.2-0.5,0.4-0.5,0.4l-0.1,0.5
				c0,0-0.1,0-0.2,0c-0.4,0.1-0.2-0.1-0.4,0c-0.4,0.1-0.4,0.2-0.7,0.4c-0.4,0.1-0.5,0.4-0.8,0.4c-0.3,0-0.7,0.2-0.6-0.2
				c0.1-0.4-0.1-0.7-0.2-0.9c-0.1-0.3-0.3-0.4-0.4-0.8c-0.1-0.4-0.2-0.7-0.2-0.7l-0.3-0.4l0-1.3c0,0,0.7-0.4,1-0.7
				c0.4-0.2,0.9-0.6,1.1-0.7c0.2-0.1,1-0.2,1.2-0.1c0,0,0.1,0.8,0.2,1.4c0.1,0.6,0.1,0.7,0.4,1c0.3,0.4,0.8,0.7,0.7,1.1
				C118.9,13.5,119.1,13.6,118.8,13.8z"/>
		</g>
		<g>
			<path fill="#040000" stroke="#000000" stroke-width="0.149" d="M143.5,23.3c0,0,0.2,0.3,0.3,0.1c0.1-0.2,0.1-0.3,0.1-0.3"/>
			<path fill="#040000" d="M136.4,10l1.1,0c0,0,0.5,0.8,0.5,1.1c0,0.3-0.2,0.7-0.3,1.1c-0.1,0.4-1,1.5-1.3,2
				c-0.3,0.4-0.4,1.1-0.4,1.1l0.4,0.3l0.8,0.4c0,0,0.3,0.4,0.4,0.7c0.2,0.5,0.2,0.2,0.2,1c0,0.6-0.1,0.3-0.3,0.5
				c-0.2,0.3-0.7,0.2-1.6-0.2c-0.9-0.3-1.9-0.9-2.4-1c-0.4-0.1-1.2-0.7-1.1-0.9c0.3-0.5-0.1-1,0.5-1.3c0.6-0.3,0.3,0,0.9-0.5
				c0.6-0.4,0.7-0.6,0.8-1.1c0.1-0.5,0.5-0.7,0.6-1c0.1-0.3,0.2-0.1,0.2-0.6c0-0.5,0.6-1,0.6-1L136.4,10z"/>
			<path fill="#040000" d="M143.8,23.2c0.5-0.9,0.2-0.4,0.8-1.5c0.6-0.9,0.8-1.5,1.1-2c0.1-0.2,0.9-1.4,0.9-1.4c0,0,0.7-0.8,0.8-0.6
				c0.2,0.3,0.4,0.5,0.1,1.1c-0.3,0.6-0.8,1.2-0.9,1.6c-0.1,0.4,0,0.1-0.3,0.9c-0.2,0.8-0.6,2.6-0.7,2.9c-0.1,0.3,0,0-0.4,0.6
				c-0.4,0.7-0.5,0.6-0.9,0.8c-0.5,0.1-1.1-0.1-1.2,0c-0.1,0,0.1,0.4,0.1,0.4c0,0.2,0.1,0.5,0.1,0.6c-0.2,0.3-0.8,0.7-1.3,0.7
				c-0.5,0-0.9,0-1.6,0.2c-0.6,0.1-0.8,0.1-1.1,0.3c-0.3,0.2-0.3,0.2-0.3,0.4c0,0.1-0.1,1.4-0.1,1.9c0,0.3-0.2,0.6-0.4,0.6
				c-0.4,0,0,0.1-0.7,0.1c-0.8,0-0.9,0.1-1,0.6c-0.2,0.5-0.2,0.9-0.1,1.2c0.1,0.3,1.1,0.8,1.4,0.8c0.3,0.1,2.9-0.2,3.3-0.1
				c0.4,0.1,0.4,0.1,0.3,0.5c-0.1,0.4-0.2,0.6-0.4,0.9c-0.2,0.3-0.3,0.4-0.6,0.6c-0.3,0.1-0.8,0-1,0.1c-0.3,0.1-0.2,0.3-1.3,0.3
				c-1.2,0-2.2-0.6-2.2-0.6s-0.6,0.1-0.9,0c-0.2-0.1-0.9-0.6-1.1-1.1c-0.3-0.5-0.2-0.6-0.2-0.6s0-1.2,0.1-1.7c0-0.2,0.4-0.8,1-1.3
				c0.3-0.3,0.4-0.4,0.7-0.6c0.6-0.4,1.5-0.4,1.5-0.4c0.2,0,0.4-0.1,0.4-0.1l0-0.6c0,0-0.4,0-0.5-0.2c0-0.2-0.1-0.5-0.1-0.5
				s-0.6,0-1.2,0c-0.5,0-1.9,0.2-2.2-0.1c-0.3-0.2-0.3-0.5-0.5-0.5c-0.3,0-0.8,0-0.8-0.3c0-0.3,0.4-0.7,1.1-1c0,0-0.3,0,0.6-0.2
				c0.9-0.2,1.2-0.2,1.8-0.3c0.6-0.1,0.5,0.1,1.8,0c1.4,0,1.8,0,2.4-0.1c0.6-0.2,0.3-0.1,0.7-0.3c0.8-0.2,0.8-0.2,1.7,0
				c0.5,0.1,0.1-0.4,0.5-0.3l0.3,0l0-1c0,0-0.6,0.1-0.8,0c-0.5-0.3-1.3-0.6-2.2-0.4c-0.4,0.1-0.7-0.8-1.2-0.6
				c-0.5,0.2-0.7-0.3-1.1,0.4c-0.3,0.7-0.2,0.6-0.8,1c-0.6,0.4-1.3,0.9-1.9,0.4c-0.6-0.4-0.5-1.1-0.5-1.3c0-0.2,0.9-0.6,1.5-0.7
				c0.6-0.1,0.4-0.1,0.4-0.1l0.6-0.7l0.5-0.2c0,0-0.1-0.3-0.3-0.5c-0.2-0.1-0.3-0.1-0.5-0.2c-0.2-0.1-0.7-0.1-0.9-0.1
				c-0.6-0.1-1.2,0-1.4-0.2c-0.3-0.2-0.7-1-0.2-1.5c0.6-0.7,1.6-0.5,1.7-0.5c0,0,0.3,0.2,0.4,0.2c0.2,0,1.6,0.6,2.3,0.4
				c0.7-0.2,0.7,0.1,1.1-0.4c0.5-0.6,2.1-2.1,2.2-2.2c0.1-0.2-0.3-0.4-1-0.8c-0.7-0.3-1.5-0.6-1.6-0.7c-0.1-0.1-0.4-0.4-0.4-0.4
				l-0.7-0.9c0,0,0.8-0.7,1.1-1.5c0.3-0.8,1-1.7,1.1-2.2c0.1-0.5,0.5-1.8,0.5-1.8l0.1-0.2c0,0,0.9-0.5,1.2-0.4
				c0.3,0.1,0.6,0.2,0.6,0.5c0,0.3,0.3,1.5,0.1,2c-0.2,0.5-0.9,1.8-0.9,1.8s-0.2,0.3-0.7,0.9c-0.4,0.6,0,0.7,0.2,0.9
				c0.2,0.3,0.1,0.3,0.4,0.4c0.3,0.2,1,1,1.4,1.2c0.2,0.1,0.1,0.8,0.1,0.8c0,0.3,0,0.3,0,0.3s0.1,0-0.1,0.3c-0.2,0.2-0.3,0-0.7,0.6
				c-0.3,0.6-0.8,0.9-1.2,1.4c-0.3,0.5-1,0.9-0.9,1.5c0.1,0.6-0.3,0.9,0.3,1.1c0.6,0.3,0.9,0.3,1.7,0.7c0.8,0.4,0.8,0.4,0.8,0.4
				s0.1,0.1,0.1,0.3c0,0.1,0.4,0,0.3,0.1"/>
		</g>
	</g>
	<g>
		<g>
			<path fill="#040000" d="M184.7,25.4c-0.2-0.2-1.7,0.1-2.1,0.1c-0.4,0-0.7,0.5-0.7,0.5s-0.2,0.2-0.5,0.3c-0.3,0.2-0.5,0.3-0.9,0.3
				c-0.4,0-1.4,0.4-1.6,0.6c-0.2,0.2-0.7,0.3-0.9,0.3c-0.3,0.1-1.3-0.1-1.3-0.1s0,0-0.2-0.1c-0.2-0.1-1.6,0.2-1.7,0.3
				c-0.2,0.1-0.5,0.4-0.5,0.4c-0.2,0.1-0.4,1-0.4,1s0,0.8,0,1.1c0,0.3,0.3,0.9,0.4,1.3c0.1,0.3,0.2,0.4,0.3,0.7
				c0.1,0.3,0.2,0.5,0.2,0.7c0,0.3,0,0.6-0.1,1c-0.1,0.3,0.2,0.8,0.2,1c0.1,0.2,0.7,0.4,1.1,0.4c0.4,0,0.3-0.1,0.5-0.1
				c0.2-0.1,0.6-0.2,0.8-0.2c0.3,0,0.7-0.1,1.1-0.2c0.4-0.1,0.3-0.2,0.6-0.2c0.3-0.1,0.9-0.1,0.9-0.1s0.1,0.2,0.3,0.3
				c0.2,0.1,0.4,0,0.8,0c0.4,0,1-0.1,1.2-0.1c0.2,0,0.5-0.2,0.7-0.3c0.4-0.2,0.8-0.5,0.9-0.6c0.2-0.2,0-0.8,0-1.1
				c-0.1-0.3-0.6-0.7-0.6-0.7s-0.1-0.6-0.1-0.8c0.1-0.2,0.3-0.7,0.4-1.1c0.1-0.4,0.5-1.2,0.5-1.2s0.3-0.2,0.5-0.3
				c0.2-0.1,0.5-0.6,0.7-1c0.2-0.3,0.2-0.8,0.2-1.1C185.5,26.1,184.9,25.6,184.7,25.4z M180.9,29.2c-0.2,0.2-0.3,0.3-0.5,0.6
				c-0.2,0.3-0.1,0.3-0.2,0.7c-0.1,0.4-0.2,0.6-0.2,0.6s0,0-0.1,0.2c-0.1,0.1-0.1,0.1-0.2,0.2c-0.2,0.2-0.7,0.3-0.7,0.3s-0.7,0-1,0
				c-0.3,0-0.9,0.3-1.1,0.1c-0.1-0.2-0.2-0.2-0.2-0.6c-0.1-0.4-0.1-0.5-0.1-0.7c-0.1-0.2-0.1-0.6-0.1-0.6s0.5,0,0.7-0.2
				c0.2-0.2,0.5-0.3,0.6-0.4c0.1-0.2,0.9-0.5,1.1-0.6c0.2,0,0.2-0.1,0.4-0.1c0.2,0,1.3-0.2,1.4,0C181,29,181.1,29.1,180.9,29.2z"/>
			<path fill="#040000" d="M157.4,10.9c0,0,0.5-0.2,0.7-0.4c0.3-0.3,0.5-0.2,0.7-0.5c0.2-0.3,0.4-0.3,0.7-0.3c0.3,0.1,1.6,0.1,2,0.1
				c0.4,0,1.1,0.3,1.4,0.1c0.3-0.1,0.7-0.2,1.2-0.2c0.4-0.1,0.9,0,1.1-0.2c0.2-0.2,0.5-0.2,0.9-0.2c0.4,0,0.8,0.2,1.3,0.4
				c0.5,0.3,0.7,0.4,0.9,0.7c0.2,0.3,0.5,0.5,0.6,1.3c0.1,0.8,0.2,1.1,0.1,1.4c-0.2,0.3-0.5,1.4-0.9,1.5c-0.4,0.2-1.1,0.2-1.3,0.2
				c-0.2,0.1-0.3,0.2-1.3-0.1c-1-0.3-1.5-0.8-1.9-0.8c-0.4,0-0.5-0.4-1.1-0.5c-0.5-0.1-1.2-0.2-1.6-0.2c-0.4,0-0.8-0.4-1.3-0.4
				c-0.5,0-1.1-0.3-1.2-0.4c-0.2-0.1-0.4-0.3-0.7-0.5c-0.4-0.2-0.5-0.3-0.5-0.5C157.3,11.2,157.4,10.9,157.4,10.9z"/>
			<path fill="#040000" d="M152.9,19.7c0,0,1.3,0.3,1.8,0.4c0.5,0,1.6,0,2.1,0c0.5,0,1.1,0,1.4-0.1c0.3-0.1,1.5-0.5,2-0.8
				c0.6-0.3,1.2-0.4,1.7-0.6c0.5-0.2,1-0.6,1.4-0.8c0.4-0.2,1.1-0.3,1.3-0.3c0.3-0.1,0.7-0.2,1.2-0.4c0.4-0.2,0.5-0.2,1-0.3
				c0.5-0.1,1.5-0.4,1.6-0.2c0.2,0.3,0.2,0.4,0.1,0.6c-0.2,0.2-0.1,0.3-0.3,0.6c-0.2,0.3-0.5,0.6-1.1,0.9c-0.6,0.3-1.3,0.4-1.4,0.4
				c-0.2,0.1-0.2,0.1-0.5,0.2c-0.5,0.1-0.5,0.1-1,0.2c-0.4,0.1-0.1,0.2-0.7,0.3c-0.6,0.2-0.4,0.3-0.6,0.4c-0.3,0.1-0.6,0.3-1.3,0.5
				c-0.7,0.2-1,0.5-1.7,0.9c-0.7,0.4-0.8,0.4-1.2,0.7c-0.4,0.4-0.6,0.4-1,0.8c-0.4,0.4-0.1,0.3-0.6,0.4c-0.5,0.1-1.3,0.3-1.7,0.2
				c-0.5-0.1-1.5-0.5-2-0.5c-0.4,0-1-0.3-1.2-0.8c-0.3-0.6-0.4-0.8-0.3-1.4c0.2-0.6,0.2-0.7,0.4-1C152.6,19.8,152.7,19.7,152.9,19.7
				z"/>
			<path fill="#040000" d="M190.2,18.1c-0.3-0.2-1.3,0-1.6,0.2c-0.3,0.3-1.7,0.5-1.9,0.6c-0.3,0.2-1.2,0.5-1.6,0.7
				c-0.4,0.2-0.4,0.2-1.1,0.4c-0.7,0.2-0.9,0.2-1.3,0.3c-0.4,0.2-0.9-0.1-0.9-0.1s0-0.6,0.1-0.9c0.1-0.3,0.6-1.1,0.8-1.4
				c0.2-0.3,0.6-0.7,0.7-1c0.2-0.2,0-0.7,0-1.1c0-0.4-0.2-1.1-0.2-1.3c-0.1-0.2-0.3-0.4-0.5-0.5c-0.3-0.1-0.5,0-1.2,0
				c-0.6,0-0.6,0.1-0.7,0.2c-0.2,0.1-0.4,0.2-0.6,0.4c-0.3,0.2-0.6,0.2-0.7,0.2c-0.2,0-0.4-0.2-0.4-0.4c-0.1-0.2,0.1-0.3,0.4-0.5
				c0.3-0.2,0.5-0.6,0.6-0.8c0.2-0.2,0.1-0.6,0-0.8c-0.1-0.3-0.5-0.4-0.7-0.5c-0.2-0.1-0.2-0.3-0.2-0.5c0-0.2,0.1-0.2,0.4-0.3
				c0.2-0.1,0.5-0.3,1-0.4c0.4-0.2,0.9-0.3,1.2-0.4c0.3-0.2,0.5-0.5,0.7-0.8c0.2-0.3,0-0.6-0.1-0.9c-0.1-0.3-0.3-0.5-0.5-0.6
				c-0.3-0.1-1.5-0.1-1.9,0c-0.5,0.2-0.4,0.1-0.4,0.1s-0.1,0.1-0.4,0.2c-0.3,0.1-0.6,0.3-0.8,0.4c-0.2,0.1-0.7,0.3-0.9,0.5
				c-0.2,0.2-0.5,0.3-0.5,0.3s-0.5,0.3-0.6,0.5c-0.1,0.2-0.7,0.4-1,0.5c-0.3,0.1-1,0.4-1.2,0.4c-0.2,0-0.7,0-0.9,0.1
				c-0.3,0.1-0.5,0.4-0.7,0.6c-0.2,0.2-0.4,0.4-0.6,0.6c-0.2,0.2-0.5,0.5-0.5,0.5c0,0.3,0.4,0.5,0.6,0.7c0.2,0.2,0.6,0.3,1,0.3
				c0.4,0,0.6-0.1,1.1-0.1c0.5,0,0.7-0.2,0.9-0.3c0.2-0.1,0.4,0.2,0.6,0.4c0.2,0.3,0.2,0.4,0.4,0.9c0.2,0.5,0.3,1.2,0.3,1.7
				c0,0.5-0.2,0.3-0.2,0.3s-0.9,0.2-1.1,0.3c-0.2,0.2-1.2,0.4-1.5,0.5c-0.3,0.1-1.3,0.1-1.6,0.2c-0.3,0.1-0.5,0.2-0.7,0.4
				c-0.2,0.2-0.2,0.4-0.2,0.8c0,0.5,0.2,0.3,0.6,0.8c0.4,0.5,0.3,0.3,1.1,0.4c0.9,0,0.4,0.1,0.8-0.1c0.4-0.2,0.4-0.2,0.8-0.3
				c0.4-0.2,0.7-0.4,1.3-0.6c0.6-0.2,0.3-0.1,0.3-0.1s0,0.9-0.1,1.4c0,0.5-0.1,0.3-0.3,0.6c-0.3,0.4-0.3,0.7-0.4,1.1
				c-0.1,0.3-0.2,0.7-0.2,0.7s0.5,0,0.6-0.1c0.2-0.1,0.4-0.4,0.8-0.7c0.4-0.3,0.7-0.6,1-1c0.3-0.3,0.3-0.7,0.5-1.1
				c0.2-0.4,0.1-1.4,0.1-1.4s0.2-0.1,0.4-0.3c0.2-0.2,0.9-0.5,1.2-0.4c0.3,0.1,0.8,0.3,0.7,0.5c-0.1,0.3-0.2,0.4-0.3,0.5
				c-0.2,0.2,0-0.2-0.3,0.6c-0.3,0.8-1.1,2.9-1.1,2.9s-0.7,0.2-1,0.4c-0.3,0.2-2.4,0.7-2.8,0.9c-0.4,0.3-3.4,0.8-3.7,0.9
				c-0.3,0.1-0.9,0-0.9,0l-0.7-0.1c0,0,0-0.3-0.2-0.5c-0.2-0.3,0-0.3-0.5-0.5c-0.5-0.2-1.5,0.1-1.5,0.3c0,0.2-1.1,0.6-1.3,0.7
				c-0.2,0.1-0.5,0.2-0.9,0.5c-0.5,0.4-0.7,1.2-1,1.3c-0.3,0.2-1.1,0-1.1,0.2c-0.1,0.2-2.3,1.1-2.6,1.2c-0.3,0.1-3.1,0.7-3.4,0.7
				c-0.3,0-2,0.4-2.4,0.5c-0.4,0.1-0.7,0.3-0.8,0.5c-0.1,0.3,0,0.7,0.2,0.9c0.2,0.2,0.6,0.3,0.6,0.3s0,0,0.2,0.2
				c0.2,0.2,0.9,0.5,1.3,0.6c0.4,0.1,0.6,0,1.1-0.1c0.4-0.1,0.4-0.2,0.7-0.3c0.3-0.2,0.5-0.3,1-0.4c0.5-0.2,0.5-0.3,0.8-0.3
				c0.3,0,0.6,0.2,0.6,0.2s-0.1,2-0.1,2.3c0,0.3-0.2,2.4-0.3,2.8c-0.2,0.4,0.1,1.9,0.5,2.4c0.4,0.5,0.6,0.1,1,0.2
				c0.4,0.1,0.8-0.1,1-0.2c0.2-0.1,1-0.5,1-0.5s0.9-0.2,1.4-0.2c0.5,0,1.1-0.1,1.3-0.2c0.3-0.1,0.4-0.9,0.5-1.2
				c0.1-0.3,0.2-1.6,0.4-1.9c0.2-0.3,1-1.7,1.1-2c0.2-0.3,1.1-1.2,1.3-1.6c0.2-0.4-0.1-0.9-0.4-1.3c-0.3-0.4-1.5-0.1-1.7-0.1
				c-0.2,0.1-0.5,0.2-0.8,0.3c-0.3,0.1-0.8,0.3-1.3,0.5c-0.5,0.2-1.3,0.4-1.7,0.5c-0.4,0.1-0.6,0.2-0.8,0c-0.2-0.2-0.6-0.5-0.6-0.5
				s0,0-0.3-0.2c-0.3-0.2-0.1-0.3-0.1-0.5c0-0.2,0.7-0.4,1-0.5c0.3-0.2,1.2-0.4,1.6-0.5c0.4-0.1,0.5-0.1,0.7-0.2
				c0.2-0.1,0.2-0.6,0.2-0.6s0.3-0.1,0.5-0.3c0.2-0.2,1.1-0.4,1.5-0.6c0.5-0.2,0.8-0.4,1.1-0.4c0.3-0.1,0.4,0.1,0.9,0.1
				c0.5,0,0.7,0.2,0.7,0.2s0.3,0.6,0.8,1c0.5,0.4,0.8,0.1,1.1,0.1c0.3,0,0.8-0.2,1.2-0.3c0.3-0.2,0.9-0.4,0.9-0.4s1.1-0.6,1.2-0.7
				c0.1-0.2,1.6-1,1.9-1.1c0.3-0.1,0.7-0.5,0.7-0.5s0.5-0.1,0.8-0.3c0.3-0.2,0.9-0.2,1.3-0.4c0.4-0.2,3.2-1.3,3.4-1.4
				c0.3-0.1,1.1-0.2,1.4-0.3c0.3-0.1,2.5-0.3,3.1-0.3c0.6-0.1,1.9-0.3,2.2-0.4c0.3-0.2,0.8-0.9,0.9-1.1c0.1-0.2,0.3-0.7,0.3-1.2
				C190.6,18.5,190.5,18.3,190.2,18.1z M163.3,32c0.5-0.2,0.6-0.1,1-0.2c0.4-0.2,0.5-0.3,0.8-0.3c0.3,0,0.5,0,0.5,0.2
				c0,0.2-0.4,0.5-0.5,0.8c-0.1,0.3-0.2,0.4-0.4,0.7c-0.3,0.3-0.2,0.2-0.4,0.5c-0.2,0.4,0,0.4-0.3,0.7c-0.2,0.3-0.1,0.4-0.7,0.4
				c-0.6,0-1,0-1,0s0-0.3,0-0.8c0-0.5-0.1-1.1-0.1-1.1l-0.2-0.5C162.2,32.3,162.8,32.2,163.3,32z"/>
			<path fill="#040000" d="M153.5,26.2c0,0,0.5-0.5,0.9-0.6c0.4-0.2,0.6-0.2,0.9-0.3c0.4-0.1,1.1-0.3,1.4-0.3
				c0.3-0.1,1.4-0.3,1.6-0.3c0.2,0,1.4-0.8,1.7-1.1c0.4-0.3,1.2-0.5,1.4-0.6c0.2-0.1,0.7-0.4,0.7-0.4l0.5-0.3c0,0,1.1-0.6,1.7-0.9
				c0.6-0.3,1.7-0.4,1.7-0.4s0.7-0.2,1.1-0.4c0.4-0.2,0.8-0.4,0.8-0.4s0.5-0.3,0.7-0.3c0.3,0,0.4,0.1,0.3,0.2
				c-0.1,0.2,0.1,0.2-0.3,0.4c-0.4,0.2-0.6,0.3-0.8,0.5c-0.3,0.3-0.5,0.7-0.5,0.7s-1.7,1-2.5,1.4c-0.8,0.5-1.7,0.9-2.2,1.2
				c-0.5,0.3-1.9,1.1-2.3,1.3c-0.4,0.2-1.3,0.8-1.3,0.8s-0.6,0.3-1.1,0.4c-0.5,0.1-1,0.4-1,0.4l-0.3,0.3c0,0-1.9,0.2-2.3,0
				c-0.4-0.2-0.7-0.4-0.8-0.6C153.5,26.5,153.5,26.2,153.5,26.2z"/>
		</g>
		<g>
			<path fill="#040000" d="M195.8,17.8c0,0,0.4,0.1,0.5,0.2c0.2,0.2,0.3,0.3,0.3,0.7c0.1,0.4,0.1,0.7,0,1.4c0,0.7-0.2,1.3-0.2,1.9
				c0,0.6,0,0.6,0,1.3c0,0.7,0,1,0.2,1c0.3,0,1.2,0.2,1.6,0c0.4-0.1,0.8-0.1,0.9-0.4c0-0.3,0.1-1.9,0.1-2.3c0-0.5-0.1-2.3-0.1-2.6
				c0-0.3-0.1,0.1-0.2-0.2c0-0.3,0.2-0.7,0.4-0.9c0.3-0.2,0.5-0.5,0.8-0.3c0.3,0.1,0.4,0.4,0.5,0.6c0.1,0.2,0.2,1.4,0.2,1.9
				c0,0.4,0,1,0,1.4c-0.1,0.4-0.2,0.3-0.1,0.6c0.1,0.3,0.1,0.3,0.2,0.9c0.1,0.6,0.3,1.3,0.3,1.8c0,0.5,0,1-0.2,1.5
				c-0.2,0.4,0,0.7-0.4,1c-0.4,0.2-0.4,0.2-0.8,0.3c-0.3,0.1-0.7,0.2-1.7,0.2c-0.9,0-1.7,0-2.2,0.1c-0.5,0-0.9,0.2-1.3,0
				c-0.4-0.2-0.7-0.4-0.7-0.7c0-0.3,0.2-0.5,0.2-0.8c0-0.4-0.1-1.8,0-2.1c0.1-0.3,0.1-0.7,0.2-1.1c0.1-0.5,0-1.2,0-1.6
				c0-0.4,0.2-0.3,0-0.7c-0.2-0.5-0.3-1-0.3-1.3c0-0.3,0.2-0.6,0.3-0.8c0.2-0.3,0.3-0.3,0.5-0.4C195.5,17.9,195.8,17.8,195.8,17.8z"
				/>
			<path fill="#040000" d="M200.3,15c0,0,0.6-0.1,0.9-0.1c0.3,0,0.7,0.1,0.8,0.2c0.2,0.2,0.2,0.3,0.4,0.3c0.2,0,1.2,0.1,1.4-0.1
				c0.2-0.2,0.3-0.3,0.3-0.6c0.1-0.2,0.1-0.4,0.2-0.6c0-0.2-0.1-0.4,0-0.6c0.1-0.2,0.3-0.5,0.5-0.5c0.2-0.1,0.5-0.1,0.7-0.1
				c0.2,0,0.3,0,0.5,0.2c0.2,0.2,0.4,0.5,0.4,0.8c0,0.4,0,0.5-0.2,0.7c-0.2,0.2-0.5,0.6-0.8,0.8c-0.2,0.3-0.2,0.4-0.4,0.7
				c-0.2,0.3-0.3,0.3-0.4,0.5c-0.1,0.3,0,0.7-0.1,0.9c-0.1,0.2,0.1,0.3-0.4,0.5c-0.5,0.3-0.2,0.3-0.6,0.3c-0.4,0-0.3,0-0.5-0.2
				c-0.2-0.2-0.3-0.2-0.5-0.6c-0.2-0.3-0.1-0.5-0.2-0.6c-0.1-0.1-0.2-0.4-0.3-0.4c-0.2,0-0.1,0-0.5-0.1c-0.4-0.1-0.4-0.3-0.5-0.5
				c-0.1-0.2-0.2-0.3-0.4-0.3c-0.2-0.1-0.5-0.1-0.4-0.3C200.1,15.3,200.3,15,200.3,15z"/>
		</g>
	</g>
	<g>
		<path fill="#040000" d="M223.7,17.3c-0.1-0.3-0.3-1-0.4-1.6c-0.1-0.6-0.2-1.6-0.3-1.9c-0.1-0.3-1.2-0.6-1.5-0.7
			c-0.4-0.1-0.9,0.1-1.4,0.2c-0.5,0.2-0.7,0.5-0.9,0.9c-0.2,0.4,0,0.6-0.3,0.8c-0.2,0.2-2.8,0.6-3.3,0.8c-0.4,0.2-1.5,0.3-2.1,0.3
			c-0.6,0.1-0.9,0.1-1.2,0.3c-0.3,0.2-0.4,0.8-0.4,0.8s0.1,1.2,0.1,1.4c0,0.2,0,1.1,0,1.1l-0.1,2.1l0.1,2c0,0-0.1,2.8-0.1,3.3
			c0,0.5,0,0.5-0.2,1c-0.2,0.5,0,2.6,0,3c0,0.4,0.2,1.2,0.3,1.4c0.1,0.3,0.2,0.3,0.7,0.4c0.5,0,0.2-0.1,0.4-0.3
			c0.3-0.3,0.4-0.1,0.7-0.4c0.4-0.3,0.5-0.2,0.9-0.5c0.4-0.3,0.9-0.3,1.3-0.4c0.3-0.1,0.8-0.1,1.6,0c0.8,0.1,0.5,0.2,0.9,0.2
			c0.4,0,0.5,0.4,0.7,0.5c0.3,0.1,0.6,0.5,0.6,0.5s-0.2-0.2,0.2,0.2c0.4,0.4,0.5,0.4,0.5,0.4s0.4-0.1,0.7-0.1
			c0.4-0.1,0.3-0.1,0.6-0.2c0.3-0.1,0.3,0.1,0.6,0c0.4-0.1,0.2-0.3,0.5-0.6c0.3-0.4,0.4-0.6,0.5-1c0.1-0.4,0-1.2,0-1.6
			c0-0.4-0.1-0.6-0.1-0.9c0-0.3-0.1-3.4,0-3.8c0-0.5-0.1-1.4-0.1-2.1c0-0.7-0.1-1.4-0.1-1.7c0-0.3,0.3-0.4,0.4-0.7
			c0.1-0.3,0.2-1,0.2-1.6C223.9,17.8,223.8,17.6,223.7,17.3z M214.5,20.9c0-0.3,0-0.9,0-1.1c0.1-0.2,0.2-0.4,0.2-0.4
			s0.1-0.3,0.3-0.3c0.2,0,0.4,0,0.7-0.1c0.3-0.1,0.7-0.4,1.1-0.5c0.3-0.1,0,0,0.3-0.1c0.2-0.1,0.6-0.3,0.9-0.5
			c0.3-0.2,0.3-0.2,0.7-0.3c0.4-0.1,0.6-0.1,0.8,0c0.3,0.2,0.4,0.3,0.6,0.7c0.2,0.4,0.3,0.7,0.2,0.8c-0.2,0.2-0.1,0.5-0.1,0.9
			c0,0.3,0.1,0.3,0.1,0.6c0,0.3,0.2,0.7,0.1,1c-0.2,0.3-0.1,0.3-0.4,0.5c-0.3,0.2-0.7,0.3-1.2,0.3c-0.5,0.1-0.4,0-0.8,0.1
			c-0.4,0.1-0.4,0-0.8,0.2c-0.4,0.2-0.4,0.2-0.8,0.3c-0.4,0.1-0.1,0.2-0.6,0.2c-0.5,0-1-0.2-1-0.2c-0.2-0.1-0.3-0.2-0.3-0.6
			c0-0.4,0.2-0.8,0.2-0.8S214.5,21.2,214.5,20.9z M220.7,28.5c-0.2,0.1-0.2,0.2-0.4,0.2c-0.2,0.1-0.2,0.2-0.3,0.2
			c-0.1,0-0.1,0.1-0.4,0.1c-0.3-0.1,0.2,0.1-0.5-0.2c-0.7-0.3-0.9-0.6-1.2-0.6c-0.3,0-0.7-0.2-1-0.2c-0.5,0.1,0,0-0.5,0.1
			c-0.1,0-0.2,0.1-0.6,0.1c-0.3,0-0.3,0.1-0.6,0c-0.4-0.1-0.5-0.3-0.5-0.6c0-0.4-0.2-0.5-0.2-0.5l-0.1-0.3c0,0-0.1-0.2,0-0.5
			c0.1-0.3,0.1-0.6,0.1-0.6l0.1-0.2c0,0,0.8-0.1,1.3-0.1c0.5-0.1,0.6-0.1,1.1-0.2c0.5-0.1,1.2-0.2,1.2-0.2s0.4-0.1,0.7-0.2
			c0.3-0.1,0.1-0.1,0.6-0.1c0.6-0.1,0.7-0.2,0.9-0.1c0.2,0.1,0.3,0.1,0.3,0.4c0,0.3-0.1,0.8,0,1c0.1,0.2,0,0.4,0.1,0.7
			c0.1,0.4,0.1,0.4,0.1,0.4s0,0.4,0,0.8C220.8,28.1,220.9,28.4,220.7,28.5z"/>
		<path fill="#040000" d="M239.2,22.3c0-0.2-0.5-0.8-0.5-1c0-0.2-1.1-2.1-1.2-2.4c-0.1-0.3-0.8-0.8-1-1c-0.2-0.2-0.8-0.1-1.2-0.1
			c-0.4,0-0.4,0.1-0.6,0.3c-0.2,0.2-0.2,0.6-0.1,0.9c0.1,0.3,0.3,0.2,0.3,0.2l0,0.5c0,0-0.3,0.2-0.7,0.2c-0.3,0-0.3,0.2-0.5,0.2
			c-0.2,0-0.7,0.2-1,0c-0.4-0.2-0.6-0.1-0.9-0.1c-0.3,0-1.2,0.1-1.5,0.2c-0.3,0.1-1.1,0.6-1.4,1c-0.3,0.3-0.7,0.9-0.9,1.4
			c-0.1,0.5,0,1.3,0,2.2c0,0.9,0,1.7,0,1.7s-0.1,0.2-0.3,0.3c-0.2,0.1,0.1,0.6,0.1,0.9c0,0.3,0.4,0.4,0.6,0.7
			c0.2,0.3,0.7,0.5,0.9,0.6c0.2,0.1,1,0.1,1.2,0c0.2,0,0-0.1,0.6-0.1c0.5,0,0.2-0.1,0.7-0.1c0.5,0,1.1-0.2,1.6-0.2
			c0.5,0,0.3-0.2,0.8-0.4c0.5-0.3,0.2-0.3,0.7-0.5c0.5-0.2,0.5-0.6,0.7-0.8c0.2-0.2,0.1-1,0.1-1.5c0-0.6-0.1-2.9-0.1-3
			c0-0.2-0.2,0-0.3-0.3c0-0.3,0.1-0.3,0.4-0.4c0.3-0.1,0.4-0.1,0.4-0.1s0,0.2,0,0.3c0,0.2,0.2,0.1,0.4,0.3c0.2,0.2,0.7,0.4,1,0.7
			c0.2,0.3,1,0.8,1.2,1c0.2,0.2,0.3,0.1,0.5,0.1c0.2,0,0.2,0,0.2-0.4C239.4,23,239.2,22.5,239.2,22.3z M234.5,22.6
			c-0.2,0.1-0.2,0.1-0.4,0.2c-0.2,0.1,0,0-0.2,0.1c-0.1,0.1-0.1,0.6-0.1,0.7c0,0.1,0.2,0.2-0.2,0.1c-0.3,0-0.5-0.1-0.8-0.1
			c-0.3,0-0.3-0.1-0.7-0.1c-0.4,0-0.3,0-0.5,0.3c-0.1,0.3-0.3,0.3,0,0.7c0.3,0.3,0.3,0.3,0.6,0.6c0.3,0.3,0.5,0.4,0.5,0.4l0.2,0.2
			c0,0,0,0.2-0.1,0.2c-0.2,0-0.1,0.1-0.5,0.1c-0.4,0-0.3,0-0.7,0c-0.4,0-0.5,0-0.6-0.1c-0.1-0.1-0.6-0.4-0.7-0.7c0-0.3-0.1-0.8,0-1
			c0.1-0.2,0.1-1.3,0.2-1.5c0.1-0.2,0.3-0.4,0.7-0.5c0.4-0.1,0.7-0.2,1-0.2c0.4,0,1.1,0,1.1,0s1.2,0,1.1,0.2
			C234.4,22.5,234.6,22.4,234.5,22.6z"/>
	</g>
</g>
<g>
	<path fill="#040000" stroke="#FFFFFF" stroke-width="0.175" d="M59.1,12.4c0,0.2-0.1,0.4-0.2,0.6c-0.1,0.2-0.3,0.2-0.4,0
		c-0.4-0.6-0.6-1.2-0.4-1.9c0.1-0.4,0.2-1.4,0.3-2.9c0-1.4-0.2-2.5-0.4-3.1c-0.1-0.1,0-0.3,0-0.3c0.1,0,0.3,0,0.4,0
		c0.3,0.2,0.6,0.3,0.7,0.4c0.6-0.2,1.3-0.5,2.1-0.9c0.2-0.2,0.5-0.2,0.9-0.1c0.7,0.2,1.1,0.4,1.2,0.5c0.1,0.2,0.1,0.4,0,0.6
		C63.1,5.7,63,7.6,63.1,11c0,0.9-0.1,1.5-0.2,1.8c-0.2,0.4-0.3,0.5-0.4,0.6c-0.1,0-0.3-0.1-0.5-0.4c-0.2-0.3-0.3-0.6-0.5-0.9
		c-1,0.1-1.7,0.2-2.1,0.3C59.3,12.4,59.2,12.4,59.1,12.4z M61.5,11.3c0.1,0.1,0.2,0.1,0.3,0.2c0.2,0,0.3-0.2,0.2-0.5
		c0-1.2,0-2.8-0.1-4.9c0-0.5-0.1-0.8-0.2-0.9c-0.2-0.1-0.4-0.1-0.8,0.1c-0.7,0.3-1.2,0.5-1.6,0.6c0,0-0.1,0.6-0.1,1.6
		C59.5,7.1,60,7,60.6,7c0.3,0,0.5,0.1,0.7,0.3c0.1,0.1,0.1,0.3-0.2,0.3C59.8,7.9,59.2,8,59.2,8c0,0.4,0,0.9,0,1.5
		c0.5-0.3,1-0.5,1.4-0.4c0.3,0,0.5,0.1,0.7,0.3c0.1,0.1,0.1,0.3-0.2,0.3L59.2,10c0,1,0,1.6,0,1.7c0.5-0.1,0.9-0.3,1.5-0.4
		c0.4-0.1,0.6-0.2,0.6-0.2S61.3,11.2,61.5,11.3z M59.1,13.6c0-0.2,0.1-0.3,0.2-0.3c0.1-0.1,0.4,0,0.7,0.1c0.3,0.1,0.5,0.2,0.5,0.3
		c0,0.1,0,0.2-0.1,0.4c-0.4,0.4-0.7,0.7-0.8,0.9c-1.3,1.6-2.3,2.4-3,2.4c-0.3,0.1-0.4,0-0.1-0.2C58.2,15.6,59.1,14.4,59.1,13.6z
		 M61.4,14.8c-0.3-0.3-0.4-0.5-0.4-0.6c0-0.1,0.1-0.2,0.1-0.3c0.1,0,0.6,0.2,1.3,0.6c0.3,0.2,0.5,0.4,0.5,0.6c0,0.4,0,0.6,0,0.8
		c-0.1,0.1-0.2,0.2-0.3,0.2c-0.2,0-0.3-0.1-0.4-0.3C61.8,15.4,61.6,15.1,61.4,14.8z M67.8,9.8c0-0.3,0-0.7,0-0.9
		c-1,0.2-1.8,0.4-2.6,0.6c-0.5,0.1-1,0-1.4-0.3c-0.3-0.2-0.3-0.4,0.1-0.4c2-0.4,3.3-0.7,3.9-0.8c0-1.8,0-2.8,0-3
		c0-0.5-0.2-0.9-0.5-1.3c-0.2-0.3-0.2-0.5,0-0.6c0.3-0.1,0.6,0,1,0.2c0.7,0.3,1,0.7,0.8,1.1c-0.2,0.8-0.4,1.9-0.4,3.3
		c0.1,0,0.1-0.1,0.2-0.1c1-0.4,1.7-0.4,2.1-0.1c0.3,0.1,0.4,0.3,0.4,0.4c-0.1,0.2-0.2,0.3-0.4,0.3c-1.4,0.3-2.2,0.4-2.4,0.5
		c0,0.2,0,0.5,0,0.7c0,0,0.1,0,0.1,0c0.3,0.1,0.5,0.3,0.6,0.4c0,0.1,0,0.3-0.2,0.4c-0.1,0.1-0.3,0.3-0.5,0.5c0,1.7,0.1,3.5,0.2,5.2
		c0,1-0.1,1.9-0.3,2.5c-0.2,0.5-0.4,0.7-0.6,0.7c-0.2,0-0.5-0.3-0.8-0.8c-0.3-0.4-0.9-1-1.9-1.7c-0.3-0.2-0.4-0.3-0.4-0.4
		c0-0.1,0.1-0.1,0.6,0c0.4,0.1,0.8,0.2,1.2,0.3c0.3,0.1,0.6,0.1,0.7,0c0.1-0.1,0.2-0.3,0.2-0.6c0-1.5,0-2.9,0-4.1
		c-1.8,1.9-3.2,2.8-4.2,2.9c-0.4,0-0.4,0-0.1-0.2c0.3-0.2,0.5-0.4,0.8-0.6C66.1,12.3,67.3,10.9,67.8,9.8z"/>
	<path fill="#040000" stroke="#FFFFFF" stroke-width="0.175" d="M76.8,17.8c0,0.1-0.1,0.2-0.2,0.3c-0.2,0.2-0.3,0.2-0.5,0
		c-0.6-0.7-0.7-1.5-0.5-2.5c0.2-0.9,0.4-1.7,0.4-2.4c0.3-4.7,0.2-7.5-0.2-8.4c-0.1-0.2-0.1-0.4-0.2-0.6c-0.1-0.2-0.1-0.3,0-0.4
		c0.3-0.1,0.5,0,0.9,0.2C77,4,77.4,4,77.9,4c2.1-0.4,4.1-0.6,5.9-0.8C84.5,3.1,85,3,85.2,2.8c0.1,0,0.2-0.1,0.4-0.1
		c0.2,0,0.7,0.2,1.4,0.8c0.5,0.3,0.7,0.6,0.7,0.8c0,0.1-0.1,0.3-0.2,0.5c-0.1,0.1-0.1,0.1-0.2,0.3C87,5.4,87,8.3,87.2,13.8
		c0.2,2.6,0.1,4.2-0.3,4.9c-0.1,0.3-0.3,0.5-0.5,0.5c-0.2,0-0.4-0.2-0.5-0.5c-0.2-0.5-0.5-0.9-0.8-1.3c-3.5,0-6.2,0.1-7.9,0.4
		C77.1,17.8,77,17.8,76.8,17.8z M85.3,16.4c0.1,0.1,0.2,0.2,0.3,0.3c0,0,0.1-0.1,0.2-0.3c0.1-0.3,0.2-0.7,0.1-1.3
		c0-0.6,0-2.1-0.1-4.5c0-3.9-0.1-6.1-0.4-6.5c-0.1-0.1-0.3-0.2-0.6-0.2c-1,0-2.2,0.2-3.5,0.3c0.1,0.1,0.2,0.1,0.3,0.2
		c0.1,0.1,0.1,0.2,0.1,0.4c0,0,0,0,0,0c0.3-0.1,0.6-0.2,0.9-0.1c0.3,0.1,0.5,0.2,0.6,0.3c0.1,0.1,0,0.2-0.1,0.3c0,0-0.2,0.1-0.5,0.2
		c-0.4,0.1-0.7,0.1-1.1,0.2c0,0.2,0,0.5-0.1,0.7c0.5-0.1,0.7-0.2,0.8-0.2c0.7-0.2,1.1-0.3,1.3-0.1c0.5,0.3,0.9,0.5,1,0.7
		c0.2,0.2,0.2,0.3,0,0.5c-0.4,0.3-0.6,0.8-0.8,1.3c-0.3,0.7-0.6,1-0.8,1.1c-0.1,0-0.2-0.1-0.3-0.2c0,0,0,0,0,0
		c-0.5,0-0.9,0.1-1.3,0.1c0,0.3,0,0.6,0,0.9c0.4-0.1,0.9-0.2,1.3-0.3c-0.1-0.2-0.2-0.3-0.2-0.4c0-0.1,0-0.2,0.1-0.2
		c0.1,0,0.3,0.1,0.6,0.2c0.2,0.1,0.4,0.2,0.6,0.4c0.1,0.1,0.2,0.3,0.3,0.6c0,0.2,0,0.3-0.1,0.4c-0.1,0.1-0.2,0.1-0.3,0.1
		c-0.2-0.2-0.5-0.4-0.7-0.7c-0.1,0-0.3,0.1-0.4,0.1c-0.2,0-0.3,0.1-0.3,0.1c0.2,0.1,0.4,0.2,0.6,0.4c0.2,0.2,0.2,0.3,0.1,0.5
		c0,0,0,0.1-0.1,0.1c0.2-0.1,0.4-0.1,0.6-0.1c0.7-0.2,1.3-0.1,1.9,0.4c0.2,0.2,0.3,0.3,0.2,0.4c-0.1,0.1-0.4,0.2-1,0.1
		c-0.7,0-1.3,0-1.9,0.1c0,0.1,0,0.7,0.1,1.6c0,0.9-0.1,1.6-0.4,2.1c0.5-0.1,1.1-0.1,1.7-0.2C84.7,16.2,85.1,16.3,85.3,16.4z M77,17
		c1.5-0.1,3.1-0.2,5-0.4c-0.2-0.4-0.6-0.9-1.2-1.5c-0.1-0.1-0.1-0.2-0.2-0.3c0-0.1,0.1-0.1,0.2-0.1c0.7,0.1,1,0.2,1.1,0.1
		c0.1-0.1,0.2-0.2,0.2-0.4c0-0.4,0-0.9,0-1.5c-0.9,0-1.8,0.2-2.5,0.4c0.5,0.2,0.8,0.4,0.9,0.7c0.1,0.2,0.1,0.4,0.1,0.6
		c-0.1,0.2-0.2,0.3-0.3,0.2c-0.2,0-0.3-0.1-0.5-0.4c-0.4-0.6-0.6-0.9-0.6-1c-0.6,0.1-1,0.2-1.2,0.1c-0.2,0-0.4-0.1-0.5-0.3
		c-0.2-0.2-0.1-0.3,0.1-0.3c1.3-0.2,2.5-0.4,3.7-0.6c0.3-0.1,0.6-0.1,0.9-0.2c0-0.3-0.1-0.6-0.3-0.9c-1.2,0.3-2,0.6-2.4,0.8
		c-0.1,0.1-0.2,0.1-0.3,0.1c-0.3-0.2-0.5-0.4-0.7-0.6c-0.1-0.1-0.1-0.2-0.1-0.3c0-0.1,0.1-0.1,0.2-0.1c0.3,0,1-0.1,2.3-0.3
		c0-0.3,0-0.7,0-1l-1,0.2c0,0.1,0,0.1,0,0.2c0,0.2-0.2,0.2-0.4-0.1C79.2,9.9,79,9.7,79,9.4c-0.2-0.8-0.5-1.5-0.8-2
		c-0.1-0.2-0.1-0.3-0.1-0.4c0,0,0.1-0.1,0.3-0.1c0.2,0,0.4,0,0.5,0.1v0c0.4,0,0.9-0.1,1.5-0.3c0.1,0,0.2-0.1,0.3-0.1
		c0-0.3,0-0.5,0-0.7c-0.6,0.1-1.1,0.1-1.5-0.2c-0.3-0.2-0.2-0.3,0.2-0.4c0.4,0,0.9-0.1,1.3-0.2c0-0.4-0.1-0.7-0.2-0.8
		c-0.8,0.1-1.9,0.3-3.1,0.6c0,0.1,0,0.3,0,0.4c0,0.4-0.1,3.6-0.2,9.6c0,0.9,0,1.3,0,1.3S77.1,16.5,77,17z M81.6,8.5
		c0,0.2,0,0.4,0,0.6c0.6-0.2,1-0.2,1.2-0.1c0,0,0.1,0.1,0.1,0.1c0.1-0.2,0.2-0.8,0.4-1.7c0-0.3,0-0.4-0.1-0.4
		c-0.1-0.1-0.7,0-1.6,0.2c0,0.2,0,0.4,0,0.6c0.2,0,0.4,0,0.5,0c0.3,0,0.5,0.1,0.6,0.3c0.1,0.2,0,0.3-0.2,0.3
		C82.2,8.3,81.9,8.4,81.6,8.5z M80.7,7.9c0-0.3,0-0.5,0-0.7c-0.5,0.1-0.8,0.2-1.1,0.3c-0.1,0-0.2,0-0.3,0c0.1,0.8,0.2,1.4,0.4,1.9
		c0.3-0.1,0.7-0.1,1-0.2c0-0.2,0-0.4,0-0.6c-0.4,0-0.6,0-0.7,0c-0.3-0.2-0.3-0.3-0.1-0.3C80.2,8.2,80.4,8.1,80.7,7.9z"/>
	<path fill="#040000" stroke="#FFFFFF" stroke-width="0.175" d="M59.5,29.9c-0.4-0.3-0.6-0.5-0.7-0.7c0-0.2,0-0.3,0.1-0.4
		c0.2-0.1,0.7,0,1.8,0.3c0.4,0.2,0.7,0.4,0.8,0.7c0.1,0.5,0.2,0.8,0.1,1c-0.1,0.2-0.2,0.3-0.3,0.3c-0.2,0-0.5-0.1-0.7-0.3
		C60.2,30.6,59.8,30.2,59.5,29.9z M57.9,33.1c-0.2-0.2-0.3-0.4-0.3-0.6c0-0.2,0-0.3,0.1-0.3c0,0,0.1,0,0.1,0
		c0.6,0.2,1.1,0.4,1.7,0.7c0.2,0.2,0.4,0.5,0.5,0.8c0,0.3,0,0.5-0.1,0.6c-0.1,0.2-0.3,0.2-0.5,0.2C58.9,34.3,58.5,33.8,57.9,33.1z
		 M57.7,39.3c0.3-0.3,0.6-0.5,0.7-0.8c0.6-1,1.2-2,1.8-3.1c0.2-0.2,0.3-0.4,0.4-0.5c0.1-0.1,0.2-0.1,0.2,0.1c0,0.1,0,0.2-0.1,0.5
		c-1,3.2-1.6,5.1-1.6,5.8c0,0.4-0.1,0.6-0.2,0.6c-0.1,0-0.3,0-0.3-0.1c-0.5-0.2-0.8-0.9-1.1-1.9C57.5,39.5,57.5,39.4,57.7,39.3z
		 M67.9,39.7c-0.1,0-0.2,0-0.3,0.1c-2.4,0.8-4.2,1.7-5.2,2.5c-0.2,0.1-0.3,0.1-0.4,0.1c-0.2-0.1-0.4-0.3-0.5-0.6
		c-0.2-0.3-0.2-0.6-0.2-0.8c0-0.2,0.2-0.3,0.6-0.5c0.5-0.3,0.9-0.6,1.2-0.9c0.5-0.6,0.9-1.3,1.2-2.1c0-0.1,0-0.5,0-1.1
		c-0.6,0.1-1.1,0.3-1.6,0.4c-0.5,0.1-0.9,0-1.3-0.3c-0.2-0.2-0.2-0.3,0.1-0.4c1.3-0.3,2.5-0.5,3.6-0.7c0-0.8,0-1.6,0-2.4
		c-0.2,0-0.3,0-0.4,0.1c-0.8,0.2-1.5,0.1-2-0.2c-0.4-0.2-0.3-0.4,0.2-0.5c0.8-0.1,1.5-0.2,2.2-0.4c0-0.9-0.1-1.9-0.1-2.7
		c0-0.3-0.1-0.7-0.4-1.1c-0.1-0.2-0.1-0.4,0-0.5c0.1-0.1,0.3-0.2,0.5-0.1c0.3,0.1,0.8,0.2,1.3,0.5c0.3,0.2,0.4,0.4,0.4,0.6
		c-0.2,0.7-0.4,1.6-0.4,2.9c1-0.4,1.7-0.5,2-0.4c0.4,0.1,0.6,0.2,0.7,0.4c0.1,0.1,0,0.2-0.1,0.4c-0.1,0.1-1,0.3-2.7,0.7
		c-0.1,0.8-0.1,1.6-0.2,2.4c1.5-0.3,2.7-0.6,3.6-0.9c0.5-0.1,1.1,0,1.7,0.5c0.2,0.2,0.3,0.3,0.2,0.5c-0.1,0.1-0.2,0.2-0.5,0.2
		c-2.8,0-4.7,0.2-5.8,0.6c0.4,0.1,0.7,0.2,0.9,0.4c0.1,0.1,0.1,0.3-0.1,0.6c-0.4,0.4-1.1,1.3-2.2,2.8c-0.1,0.1-0.1,0.1-0.1,0.2
		c0,0,0.1,0,0.2,0c1.3-0.3,2.5-0.5,3.7-0.8c-0.2-0.3-0.4-0.6-0.6-0.9C67,38.1,67,37.9,67,37.7c0.1-0.2,0.2-0.2,0.3-0.1
		c0.3,0.2,0.8,0.6,1.6,1.3c0.8,0.7,1.1,1.3,1.1,1.9c0,0.7-0.1,1.1-0.3,1.2c-0.1,0.1-0.3,0.2-0.4,0.1c-0.2-0.1-0.3-0.3-0.5-0.7
		C68.5,40.8,68.2,40.2,67.9,39.7z"/>
	<path fill="#040000" stroke="#FFFFFF" stroke-width="0.175" d="M80.8,34.1c-0.3,0.7-0.7,1.3-1,1.8c-1.2,2.1-3,3.7-5.5,4.9
		c-0.2,0.1-0.3,0.1-0.4,0.1c-0.1-0.1-0.1-0.1,0-0.3c1.4-1.2,2.7-2.5,4-4c2-2.6,2.9-5,2.6-7.3c0-0.3,0.1-0.4,0.3-0.5
		c0.2,0,0.4,0.1,0.8,0.3c0.5,0.3,0.8,0.5,0.9,0.7c0.1,0.2,0.1,0.3-0.1,0.5c-0.3,0.5-0.8,1.6-1.4,3.3c1.3,1.7,2.7,3.3,4.2,4.7
		c0.6,0.5,1.9,1.2,4,2.1c0.4,0.2,0.6,0.4,0.6,0.5c0,0.1-0.2,0.2-0.6,0.2c-0.9,0.1-1.8,0.2-2.8,0.3c-0.4,0-0.7-0.2-1.1-0.6
		c-0.8-0.9-1.7-2.1-2.8-3.6C81.6,35.5,80.9,34.5,80.8,34.1z"/>
</g>
</svg>
